<svg viewBox="0 0 41 27" fill="none" xmlns="http://www.w3.org/2000/svg">
<g id="All">
<path d="M7.50427 26.0524C7.37693 26.3921 7.11163 26.5619 6.70837 26.5619H1.23258C0.977887 26.5619 0.797483 26.4876 0.691363 26.339C0.606467 26.2116 0.617079 26.0312 0.723199 25.7977L8.2365 2.07784C8.36385 1.73822 8.61853 1.56842 9.00057 1.56842H13.4894C13.9776 1.56842 14.158 1.82313 14.0307 2.33255L7.50427 26.0524ZM16.7367 26.5619C16.3335 26.5619 16.0894 26.3921 16.0045 26.0524L15.2086 22.9641H10.1148C9.86014 22.9641 9.67973 22.9004 9.57361 22.7731C9.46749 22.6245 9.45688 22.4334 9.54178 22.2L10.7197 17.9017C10.8471 17.4984 11.0911 17.2968 11.4519 17.2968H13.7441L12.4707 12.3618C12.3858 12.1071 12.3964 11.8099 12.5025 11.4703L14.7947 3.16036C14.8796 2.86319 15.0176 2.71461 15.2086 2.71461C15.3996 2.71461 15.5482 2.86319 15.6543 3.16036L22.9129 25.8296C23.1251 26.3178 22.966 26.5619 22.4354 26.5619H16.7367Z" />
<path d="M31.1393 25.8933C31.1393 26.339 30.927 26.5619 30.5026 26.5619H25.4088C24.9843 26.5619 24.7721 26.339 24.7721 25.8933V1.53658C24.7721 1.13329 24.9843 0.931641 25.4088 0.931641H30.4707C30.9164 0.931641 31.1393 1.13329 31.1393 1.53658V25.8933Z" />
<path d="M40.373 25.8933C40.373 26.339 40.1607 26.5619 39.7363 26.5619H34.6425C34.218 26.5619 34.0058 26.339 34.0058 25.8933V1.53658C34.0058 1.13329 34.218 0.931641 34.6425 0.931641H39.7044C40.1501 0.931641 40.373 1.13329 40.373 1.53658V25.8933Z" />
</g>
</svg>
