<svg width="622" height="63" viewBox="0 0 622 63" fill="none" xmlns="http://www.w3.org/2000/svg">
<mask id="path-1-inside-1_2712_5691" fill="white">
<path fill-rule="evenodd" clip-rule="evenodd" d="M620.207 4.48129C621.914 2.99782 620.848 0.192645 618.588 0.215285L589.935 0.502233C588.62 0.333602 587.279 0.246661 585.918 0.246661H32.2207C14.9513 0.246661 0.95166 14.2463 0.95166 31.5158C0.95166 48.7852 14.9513 62.7849 32.2208 62.7849H585.918C603.187 62.7849 617.187 48.7852 617.187 31.5158C617.187 24.4192 614.823 17.8748 610.839 12.6271L620.207 4.48129Z"/>
</mask>
<path fill-rule="evenodd" clip-rule="evenodd" d="M620.207 4.48129C621.914 2.99782 620.848 0.192645 618.588 0.215285L589.935 0.502233C588.62 0.333602 587.279 0.246661 585.918 0.246661H32.2207C14.9513 0.246661 0.95166 14.2463 0.95166 31.5158C0.95166 48.7852 14.9513 62.7849 32.2208 62.7849H585.918C603.187 62.7849 617.187 48.7852 617.187 31.5158C617.187 24.4192 614.823 17.8748 610.839 12.6271L620.207 4.48129Z" fill="white"/>
<path d="M618.588 0.215285L618.604 1.83612L618.588 0.215285ZM620.207 4.48129L619.144 3.25812V3.25812L620.207 4.48129ZM589.935 0.502233L589.728 2.10998L589.839 2.12419L589.951 2.12307L589.935 0.502233ZM610.839 12.6271L609.776 11.4039L608.631 12.3991L609.548 13.6071L610.839 12.6271ZM618.604 1.83612C619.358 1.82857 619.713 2.76366 619.144 3.25812L621.271 5.70446C624.115 3.23198 622.339 -1.44328 618.571 -1.40555L618.604 1.83612ZM589.951 2.12307L618.604 1.83612L618.571 -1.40555L589.918 -1.1186L589.951 2.12307ZM590.141 -1.10552C588.757 -1.28289 587.348 -1.37425 585.918 -1.37425V1.86758C587.21 1.86758 588.482 1.9501 589.728 2.10998L590.141 -1.10552ZM585.918 -1.37425H32.2207V1.86758H585.918V-1.37425ZM32.2207 -1.37425C14.0561 -1.37425 -0.669256 13.3511 -0.669256 31.5158H2.57258C2.57258 15.1415 15.8465 1.86758 32.2207 1.86758V-1.37425ZM-0.669256 31.5158C-0.669256 49.6804 14.0561 64.4058 32.2208 64.4058V61.164C15.8465 61.164 2.57258 47.89 2.57258 31.5158H-0.669256ZM32.2208 64.4058H585.918V61.164H32.2208V64.4058ZM585.918 64.4058C604.083 64.4058 618.808 49.6804 618.808 31.5158H615.566C615.566 47.89 602.292 61.164 585.918 61.164V64.4058ZM618.808 31.5158C618.808 24.0532 616.321 17.1668 612.131 11.647L609.548 13.6071C613.325 18.5827 615.566 24.7853 615.566 31.5158H618.808ZM619.144 3.25812L609.776 11.4039L611.903 13.8503L621.271 5.70446L619.144 3.25812Z" fill="#EAEAEA" mask="url(#path-1-inside-1_2712_5691)"/>
</svg>
