<svg viewBox="0 0 529 147" fill="none" xmlns="http://www.w3.org/2000/svg">
<mask id="path-1-inside-1_2712_20971">
<path fill-rule="evenodd" clip-rule="evenodd" d="M527.808 6.7847C529.59 4.09084 528.845 0.604031 526.489 0.614955L462.213 0.912994C460.314 0.756553 458.393 0.676782 456.453 0.676782H69.6156C31.3805 0.676782 0.384766 31.6724 0.384766 69.9075V76.8306C0.384766 115.066 31.3804 146.061 69.6155 146.061H456.453C494.688 146.061 525.684 115.066 525.684 76.8306V69.9076C525.684 54.8598 520.883 40.9334 512.73 29.5764L527.808 6.7847Z"/>
</mask>
<path fill-rule="evenodd" clip-rule="evenodd" d="M527.808 6.7847C529.59 4.09084 528.845 0.604031 526.489 0.614955L462.213 0.912994C460.314 0.756553 458.393 0.676782 456.453 0.676782H69.6156C31.3805 0.676782 0.384766 31.6724 0.384766 69.9075V76.8306C0.384766 115.066 31.3804 146.061 69.6155 146.061H456.453C494.688 146.061 525.684 115.066 525.684 76.8306V69.9076C525.684 54.8598 520.883 40.9334 512.73 29.5764L527.808 6.7847Z"/>
<path d="M526.489 0.614955L526.475 -2.34529L526.475 -2.34529L526.489 0.614955ZM527.808 6.7847L525.339 5.15132L525.339 5.15135L527.808 6.7847ZM462.213 0.912994L461.97 3.86328L462.098 3.87383L462.227 3.87324L462.213 0.912994ZM512.73 29.5764L510.261 27.943L509.135 29.6451L510.325 31.3028L512.73 29.5764ZM526.503 3.5752C526.296 3.57616 526.037 3.47613 525.863 3.30531C525.733 3.17754 525.768 3.12888 525.805 3.3044C525.885 3.6751 525.826 4.41552 525.339 5.15132L530.277 8.41807C531.572 6.46002 532.032 4.1101 531.595 2.06666C531.156 0.0144154 529.53 -2.35945 526.475 -2.34529L526.503 3.5752ZM462.227 3.87324L526.503 3.5752L526.475 -2.34529L462.2 -2.04725L462.227 3.87324ZM462.456 -2.03729C460.476 -2.20038 458.474 -2.28349 456.453 -2.28349V3.63706C458.312 3.63706 460.152 3.71349 461.97 3.86328L462.456 -2.03729ZM456.453 -2.28349H69.6156V3.63706H456.453V-2.28349ZM69.6156 -2.28349C29.7456 -2.28349 -2.57551 30.0375 -2.57551 69.9075H3.34504C3.34504 33.3074 33.0154 3.63706 69.6156 3.63706V-2.28349ZM-2.57551 69.9075V76.8306H3.34504V69.9075H-2.57551ZM-2.57551 76.8306C-2.57551 116.701 29.7455 149.022 69.6155 149.022V143.101C33.0154 143.101 3.34504 113.431 3.34504 76.8306H-2.57551ZM69.6155 149.022H456.453V143.101H69.6155V149.022ZM456.453 149.022C496.323 149.022 528.644 116.701 528.644 76.8306H522.724C522.724 113.431 493.053 143.101 456.453 143.101V149.022ZM528.644 76.8306V69.9076H522.724V76.8306H528.644ZM528.644 69.9076C528.644 54.2201 523.637 39.6934 515.134 27.85L510.325 31.3028C518.129 42.1734 522.724 55.4995 522.724 69.9076H528.644ZM525.339 5.15135L510.261 27.943L515.198 31.2097L530.277 8.41805L525.339 5.15135Z" stroke="stroke" stroke-width="4" mask="url(#path-1-inside-1_2712_20971)"/>
</svg>
