<svg width="229" height="64" viewBox="0 0 229 64" fill="none" xmlns="http://www.w3.org/2000/svg">
<mask id="path-1-inside-1_810_28770" fill="white">
<path fill-rule="evenodd" clip-rule="evenodd" d="M228.55 2.67337C229.322 1.50603 228.999 -0.00491597 227.979 -0.000184576L200.126 0.128966C199.303 0.0611775 198.47 0.0266113 197.63 0.0266113H30C13.4314 0.0266113 0 13.4581 0 30.0266V33.0266C0 49.5952 13.4315 63.0266 30 63.0266H197.63C214.198 63.0266 227.63 49.5952 227.63 33.0266V30.0266C227.63 23.5059 225.549 17.4712 222.016 12.5498L228.55 2.67337Z"/>
</mask>
<path fill-rule="evenodd" clip-rule="evenodd" d="M228.55 2.67337C229.322 1.50603 228.999 -0.00491597 227.979 -0.000184576L200.126 0.128966C199.303 0.0611775 198.47 0.0266113 197.63 0.0266113H30C13.4314 0.0266113 0 13.4581 0 30.0266V33.0266C0 49.5952 13.4315 63.0266 30 63.0266H197.63C214.198 63.0266 227.63 49.5952 227.63 33.0266V30.0266C227.63 23.5059 225.549 17.4712 222.016 12.5498L228.55 2.67337Z" fill="white"/>
<path d="M227.979 -0.000184576L227.973 -1.28296L227.979 -0.000184576ZM228.55 2.67337L227.48 1.96558L227.48 1.96559L228.55 2.67337ZM200.126 0.128966L200.02 1.40742L200.076 1.412L200.132 1.41174L200.126 0.128966ZM222.016 12.5498L220.946 11.842L220.458 12.5795L220.974 13.2979L222.016 12.5498ZM227.984 1.28259C227.895 1.283 227.782 1.23966 227.707 1.16563C227.651 1.11026 227.666 1.08918 227.682 1.16524C227.717 1.32588 227.691 1.64673 227.48 1.96558L229.62 3.38117C230.181 2.53268 230.38 1.51438 230.191 0.628893C230.001 -0.260407 229.296 -1.28909 227.973 -1.28296L227.984 1.28259ZM200.132 1.41174L227.984 1.28259L227.973 -1.28296L200.12 -1.15381L200.132 1.41174ZM200.231 -1.14949C199.373 -1.22016 198.505 -1.25618 197.63 -1.25618V1.3094C198.435 1.3094 199.232 1.34252 200.02 1.40742L200.231 -1.14949ZM197.63 -1.25618H30V1.3094H197.63V-1.25618ZM30 -1.25618C12.723 -1.25618 -1.28279 12.7496 -1.28279 30.0266H1.28279C1.28279 14.1665 14.1399 1.3094 30 1.3094V-1.25618ZM-1.28279 30.0266V33.0266H1.28279V30.0266H-1.28279ZM-1.28279 33.0266C-1.28279 50.3036 12.723 64.3094 30 64.3094V61.7438C14.1399 61.7438 1.28279 48.8867 1.28279 33.0266H-1.28279ZM30 64.3094H197.63V61.7438H30V64.3094ZM197.63 64.3094C214.907 64.3094 228.912 50.3036 228.912 33.0266H226.347C226.347 48.8867 213.49 61.7438 197.63 61.7438V64.3094ZM228.912 33.0266V30.0266H226.347V33.0266H228.912ZM228.912 30.0266C228.912 23.2287 226.743 16.9338 223.058 11.8017L220.974 13.2979C224.356 18.0085 226.347 23.7831 226.347 30.0266H228.912ZM227.48 1.96559L220.946 11.842L223.086 13.2576L229.62 3.38116L227.48 1.96559Z" fill="#D6D6D6" mask="url(#path-1-inside-1_810_28770)"/>
</svg>
