<svg width="25" height="24" viewBox="0 0 25 24" fill="none" xmlns="http://www.w3.org/2000/svg">
<path d="M20.2798 17.3538C18.5311 17.3429 16.8167 16.8569 15.3124 15.9456C13.8081 15.0343 12.568 13.7305 11.7193 12.1679C10.8706 10.6053 10.4437 8.84012 10.4826 7.05336C10.5133 5.63688 10.8359 4.24722 11.4245 2.9735C11.6048 2.58351 11.2803 2.13252 10.8688 2.25593C8.88969 2.84943 7.13264 4.06589 5.85657 5.74584C4.35439 7.72347 3.62633 10.2018 3.81422 12.698C4.0021 15.1942 5.09247 17.5295 6.87292 19.2491C8.65337 20.9687 10.9964 21.9493 13.4456 22C15.1212 22.0043 16.7695 21.5661 18.2307 20.7278C19.3819 20.0673 20.3862 19.1761 21.1854 18.1116C21.4411 17.7711 21.1387 17.3121 20.7137 17.3374C20.5692 17.346 20.4246 17.3515 20.2798 17.3538Z" stroke="#048848" stroke-width="2" stroke-linecap="round" stroke-linejoin="round"/>
</svg>
